<svg width="60" height="60" viewBox="0 0 60 60" fill="none" xmlns="http://www.w3.org/2000/svg">
<path d="M53.3016 9.34218C53.2614 8.65412 52.9699 8.00477 52.4826 7.51741C51.9952 7.03005 51.3459 6.73861 50.6578 6.69843C41.3766 6.15234 33.1758 7.24687 26.2828 9.94921C19.6875 12.5344 14.6039 16.5422 11.5758 21.5391C7.4461 28.3617 7.43672 36.6445 11.4703 44.5523L7.38516 48.6375C7.12354 48.8991 6.91601 49.2097 6.77443 49.5515C6.63284 49.8933 6.55997 50.2597 6.55997 50.6297C6.55997 50.9997 6.63284 51.366 6.77443 51.7078C6.91601 52.0497 7.12354 52.3603 7.38516 52.6219C7.91352 53.1502 8.63013 53.4471 9.37734 53.4471C9.74733 53.4471 10.1137 53.3742 10.4555 53.2326C10.7973 53.091 11.1079 52.8835 11.3695 52.6219L15.4547 48.5367C19.3781 50.5383 23.3953 51.5484 27.2789 51.5484C31.2246 51.5607 35.097 50.4819 38.468 48.4312C43.4648 45.4031 47.4727 40.3172 50.0578 33.7242C52.7531 26.8266 53.8477 18.6234 53.3016 9.34218ZM35.5453 43.6125C30.8367 46.4648 25.3125 46.6805 19.6734 44.2969L39.4875 24.4828C39.7491 24.2212 39.9566 23.9106 40.0982 23.5688C40.2398 23.227 40.3127 22.8606 40.3127 22.4906C40.3127 22.1206 40.2398 21.7543 40.0982 21.4125C39.9566 21.0706 39.7491 20.76 39.4875 20.4984C39.2259 20.2368 38.9153 20.0293 38.5735 19.8877C38.2317 19.7461 37.8653 19.6732 37.4953 19.6732C37.1253 19.6732 36.759 19.7461 36.4172 19.8877C36.0753 20.0293 35.7647 20.2368 35.5031 20.4984L15.7031 40.3266C13.3266 34.7016 13.5422 29.1633 16.4063 24.4547C21.307 16.3617 32.9391 11.8641 47.8125 12.2086C48.1359 27.0773 43.6383 38.7117 35.5453 43.6125Z" fill="#85B6FF"/>
</svg>
